<?xml version="1.0" standalone="no"?>
<!DOCTYPE svg PUBLIC "-//W3C//DTD SVG 1.1//EN" "http://www.w3.org/Graphics/SVG/1.1/DTD/svg11.dtd" >
<svg xmlns="http://www.w3.org/2000/svg" xmlns:xlink="http://www.w3.org/1999/xlink" version="1.1">
<metadata></metadata>
<defs>
<font id="cantarellbold" horiz-adv-x="1351" >
<font-face units-per-em="2048" ascent="1513" descent="-535" />
<missing-glyph horiz-adv-x="559" />
<glyph unicode="&#xfb01;" horiz-adv-x="1439" d="M137 776v211h164v60q0 53 8.5 100.5t38 106t78.5 100t138 70t208 28.5q141 0 288 -27.5t257 -64.5l-23 -234h-245v72q-101 37 -263 37q-120 0 -179.5 -51.5t-59.5 -128.5v-68h741v-987h-246v776h-495v-776h-246v776h-164z" />
<glyph unicode="&#xfb02;" horiz-adv-x="1505" d="M61 776v211h164v60q0 37 3 68.5t14.5 72.5t30.5 73t53.5 65t81 55t116.5 35.5t156 13.5q93 0 180 -11.5t165.5 -35.5t125.5 -66.5t47 -99.5v-883q0 -29 1 -44.5t8 -37t20 -32.5t38 -19t62 -8q46 0 117 22v-186q-3 -1 -28 -12t-46.5 -17.5t-77 -13t-129.5 -6.5 q-96 0 -154.5 65t-58.5 170l2 989q-114 19 -207 19q-125 0 -199.5 -48t-74.5 -120v-68h393v-211h-393v-776h-246v776h-164z" />
<glyph unicode="&#xfb03;" horiz-adv-x="1957" d="M51 776v211h164v60q0 32 0.5 53t4.5 55.5t11 58t21.5 54.5t34 52t50.5 43.5t70 36t93 22t118 8.5q122 0 256 -41l35 -13l-41 -198l-41 10q-106 22 -149 22q-217 0 -217 -155v-68h457v60q0 53 8.5 100.5t38 106t78.5 100t138 70t208 28.5q209 -8 462 -92l-24 -234h-246 l2 72q-125 23 -180 23q-122 0 -181 -45.5t-59 -120.5v-68h654v-987h-246v776h-408v-776h-245v776h-457v-776h-246v776h-164z" />
<glyph unicode="&#xfb04;" horiz-adv-x="2297" d="M96 776v211h164v60q0 32 0.5 53t4.5 55.5t11.5 58t21.5 54.5t34 52t51 43.5t70 36t93 22t118 8.5q122 0 256 -41l34 -13l-41 -198l-41 10q-106 22 -149 22q-217 0 -217 -155v-68h512v60q0 51 10.5 101t43 109t84 102.5t143 73t210.5 29.5q115 0 226.5 -39.5t182.5 -105.5 t71 -137v-846q0 -28 1.5 -44.5t8.5 -37.5t20 -32t38.5 -19t62.5 -8q45 0 116 22v-186q-3 -1 -28 -12t-46 -17.5t-76.5 -13t-129.5 -6.5q-96 0 -154.5 65t-58.5 170l2 989q-33 12 -95 22.5t-112 10.5q-133 0 -203.5 -43t-70.5 -139v-68h393v-211h-393v-776h-246v776h-512 v-776h-246v776h-164z" />
<glyph horiz-adv-x="0" />
<glyph horiz-adv-x="682" />
<glyph unicode=" "  horiz-adv-x="559" />
<glyph unicode="&#x09;" horiz-adv-x="559" />
<glyph unicode="&#xa0;" horiz-adv-x="559" />
<glyph unicode="!" horiz-adv-x="544" d="M139 0v242h258v-242h-258zM139 418v1044h258v-1044h-258z" />
<glyph unicode="&#x22;" horiz-adv-x="753" d="M49 1042v510h266v-510h-266zM438 1042v510h267v-510h-267z" />
<glyph unicode="#" horiz-adv-x="1396" d="M2 840v231h317v391h242v-391h277v391h241v-391h318v-231h-318v-271h318v-231h-318v-410h-241v410h-277v-410h-242v410h-315v231h315v271h-317zM561 569h277v271h-277v-271z" />
<glyph unicode="$" horiz-adv-x="1243" d="M164 299l74 190l41 -14q93 -36 155.5 -49.5t136.5 -13.5q148 0 208.5 27t60.5 85q-2 26 -38.5 46t-93 35.5t-124.5 32t-136 41.5t-123.5 58t-90.5 87.5t-35 123.5q0 42 16 83.5t50 84t100 77.5t155 52v266h248v-247q79 -1 129 -9.5t123 -29.5l41 -13l-68 -190l-37 8 q-144 35 -254 35q-119 0 -181 -30t-62 -66q0 -25 35.5 -45.5t92.5 -37.5t126 -35.5t137.5 -44.5t125.5 -59t92.5 -85.5t35.5 -118.5q0 -37 -8.5 -73t-32 -76t-60 -72.5t-97 -59t-138.5 -39.5v-289h-248v279q-145 6 -319 72z" />
<glyph unicode="%" horiz-adv-x="1458" d="M61 0l1104 1421h271l-1104 -1421h-271zM111 1094q0 149 80.5 230t195.5 81q40 0 78.5 -8t79 -29.5t70.5 -55t49.5 -90.5t19.5 -130q0 -149 -84 -237.5t-213 -88.5q-55 0 -102 17t-87.5 53.5t-63.5 102.5t-23 155zM291 1094q0 -154 96 -154q98 0 98 150q0 44 -9 73.5 t-25 42t-30.5 17t-33.5 4.5q-96 0 -96 -133zM817 352q0 148 87 230t208 82q40 0 76.5 -8.5t74 -30.5t64.5 -56t44.5 -90.5t17.5 -128.5q0 -150 -77.5 -237.5t-199.5 -87.5q-58 0 -108 17t-93.5 53t-68.5 102t-25 155zM1014 352q0 -151 98 -151t98 147q0 44 -9 73.5t-25 42 t-30.5 17t-33.5 4.5q-98 0 -98 -133z" />
<glyph unicode="&#x26;" horiz-adv-x="1536" d="M100 283q0 72 23 141t52.5 117t77 98.5t77.5 76t73 58.5q-86 88 -134 167.5t-48 180.5q0 158 130 258.5t317 100.5q167 0 270.5 -86.5t103.5 -218.5q0 -37 -10.5 -74.5t-23.5 -66t-41 -63.5t-46 -55.5t-57 -54.5t-55.5 -47.5t-58.5 -46.5l286 -307l324 352l149 -151 l-321 -361l321 -342h-315l-178 184q-49 -46 -92 -79.5t-109 -72t-146.5 -59t-170.5 -20.5q-184 0 -291 105.5t-107 265.5zM348 328q0 -77 59 -132t148 -55q84 0 158 43.5t149 114.5l-303 317q-52 -41 -82 -67t-64 -63.5t-49.5 -76t-15.5 -81.5zM471 1114q0 -14 2.5 -26.5 t10.5 -27t14 -24t21 -26t22.5 -25t28.5 -29.5l30 -30q118 90 145 117q50 51 50 100q0 43 -39.5 77.5t-104.5 34.5q-75 0 -127.5 -43t-52.5 -98z" />
<glyph unicode="'" horiz-adv-x="362" d="M49 1042v510h266v-510h-266z" />
<glyph unicode="(" horiz-adv-x="684" d="M129 575q0 141 29.5 288t79.5 277.5t100 232t108 196.5l19 33l205 -107l-23 -37q-112 -187 -186 -414t-74 -471q0 -241 74 -466t186 -410l23 -35l-199 -127l-22 37q-58 96 -108 198t-101 233.5t-81 280.5t-30 291z" />
<glyph unicode=")" horiz-adv-x="684" d="M16 1495l205 107l21 -33q57 -95 107 -197t100 -232t79 -277t29 -288q0 -144 -30 -294.5t-81.5 -282t-101 -232.5t-106.5 -194l-23 -37l-197 127l21 35q112 185 186 410t74 466q0 243 -74.5 470.5t-185.5 414.5z" />
<glyph unicode="*" horiz-adv-x="1124" d="M88 860l252 127l-252 125l129 223l234 -153l-17 280h256l-14 -280l233 153l129 -223l-250 -125l250 -127l-129 -223l-233 154l14 -279h-256l17 279l-234 -154z" />
<glyph unicode="+" horiz-adv-x="1349" d="M61 549v219h502v506h230v-506h501v-219h-501v-506h-230v506h-502z" />
<glyph unicode="," horiz-adv-x="536" d="M-12 -260l190 471h268l-190 -471h-268z" />
<glyph unicode="-" horiz-adv-x="1132" d="M96 549v219h942v-219h-942z" />
<glyph unicode="." horiz-adv-x="489" d="M100 -41v293h291v-293h-291z" />
<glyph unicode="/" horiz-adv-x="739" d="M-12 -131l522 1593h258l-524 -1593h-256z" />
<glyph unicode="0" d="M53 727q0 158 40 285t103.5 205t147.5 130t166 72.5t166 20.5q70 0 138 -15t139.5 -47t132 -88.5t108.5 -133t75 -187t27 -244.5q0 -166 -39.5 -298.5t-102 -214t-146.5 -136t-165.5 -75.5t-166.5 -21q-59 0 -118 11t-121.5 37t-117.5 65t-104.5 99t-85 135t-56 177.5 t-20.5 222.5zM305 727q0 -115 24.5 -207t62.5 -148t88.5 -93t99 -51.5t96.5 -14.5q47 0 95 14.5t98 51.5t88 92t62.5 146t24.5 204q0 108 -24 194t-62 138.5t-88 88t-98 49t-96 13.5q-47 0 -95 -13.5t-98.5 -48.5t-89.5 -87t-63.5 -137t-24.5 -191z" />
<glyph unicode="1" d="M215 1247l387 174h250v-1210h332v-211h-942v211h358v965l-307 -125z" />
<glyph unicode="2" d="M178 1311q66 35 119.5 58t148 47t183.5 24q125 0 221.5 -31.5t156.5 -87.5t90.5 -129.5t30.5 -161.5q0 -54 -14.5 -110.5t-36 -105.5t-61.5 -108t-74 -103t-91.5 -107t-96.5 -103.5t-105 -107.5q-42 -42 -63 -64h571v-221h-977v158q23 21 75 68.5t99.5 93t94.5 94.5 q25 26 76.5 79t78 81t70 76t67.5 78t54 72.5t45 75t26 69t11 69.5q0 186 -248 186q-30 0 -58 -2.5t-60.5 -10.5t-51 -12.5t-56 -19.5t-48 -18.5t-54.5 -23t-49 -21.5z" />
<glyph unicode="3" d="M170 76l74 209l37 -15q118 -37 181 -50t148 -13q156 0 239 51t83 145q0 29 -9.5 58t-37.5 61t-71.5 56t-118.5 39.5t-171 15.5h-47v223h47q88 0 152.5 14t98 34t53 49t24 51t4.5 49q0 68 -59.5 110.5t-178.5 42.5q-130 0 -303 -76l-39 -18l-86 203l33 16q61 31 109 50.5 t134.5 38t176.5 18.5q222 0 341.5 -100.5t119.5 -258.5q0 -205 -207 -331q127 -42 204 -131t77 -216q0 -89 -34 -165t-101 -135t-177 -92.5t-252 -33.5q-201 0 -407 84z" />
<glyph unicode="4" d="M92 303v178l594 940h340v-893h248v-225h-248v-303h-252v303h-682zM393 528h381v619l-29 -62z" />
<glyph unicode="5" d="M154 59l65 226q224 -70 371 -70q88 0 154 16.5t102.5 41t58.5 59.5t28.5 64.5t6.5 62.5q0 30 -8.5 59t-32 61t-61 55.5t-100.5 38.5t-144 15q-126 0 -373 -31v764h879v-231h-633v-281q115 9 184 9q124 0 221.5 -29.5t157.5 -76t99 -111t54 -128t15 -133.5q0 -38 -7 -77.5 t-26 -85.5t-48.5 -87t-78 -80.5t-111 -67.5t-151 -45t-194.5 -17q-110 0 -207 18.5t-221 60.5z" />
<glyph unicode="6" d="M164 635q0 195 62.5 348t176.5 253t273 152t354 52l17 -221q-262 0 -414 -89q-83 -46 -135.5 -110t-77.5 -164q145 62 295 62q97 0 183 -30t153.5 -87t107 -149t39.5 -206q0 -200 -140 -335.5t-356 -135.5q-125 0 -220.5 37t-155 97.5t-96.5 148t-51.5 178.5t-14.5 199z M395 561q0 -57 14.5 -114.5t46 -113.5t91 -91t139.5 -35q130 0 203.5 62.5t73.5 168.5q0 68 -23.5 119t-65 80.5t-91.5 44t-109 14.5q-76 0 -150 -24t-127 -64q-2 -14 -2 -47z" />
<glyph unicode="7" d="M158 1192v229h1038v-149l-557 -1272h-268l518 1192h-731z" />
<glyph unicode="8" d="M82 408q0 110 66.5 211.5t177.5 168.5q-63 43 -102 100.5t-50.5 101.5t-11.5 87q0 155 132.5 259t362.5 104q255 0 382.5 -97t127.5 -270q0 -81 -41.5 -147t-124.5 -131q124 -67 185 -162.5t61 -206.5q0 -85 -37 -163.5t-107 -142t-182.5 -102t-250.5 -38.5 q-255 0 -421.5 119.5t-166.5 308.5zM340 446q0 -94 93 -163.5t247 -69.5q141 0 224 65t83 160q0 59 -27.5 106.5t-79.5 81t-111 56.5t-138 43q-134 -37 -212.5 -115t-78.5 -164zM424 1057q0 -34 20 -63t46.5 -48.5t70.5 -38.5t75 -28.5t77 -22.5q108 61 152 101.5t44 89.5 q0 81 -72.5 124t-179.5 43q-100 0 -166.5 -48t-66.5 -109z" />
<glyph unicode="9" d="M164 969q0 200 139.5 335.5t355.5 135.5q125 0 221 -37t155 -97.5t96.5 -148t52 -178.5t14.5 -199q0 -195 -62.5 -348t-176.5 -253t-273 -152t-354 -52l-17 222q263 0 414 88q84 47 137.5 111t75.5 163q-143 -61 -295 -61q-76 0 -145.5 17.5t-131.5 55.5t-107.5 92.5 t-72 133t-26.5 172.5zM399 977q0 -68 25 -119.5t68 -80.5t94 -43.5t110 -14.5q166 0 269 78q2 14 2 47q0 46 -8.5 92.5t-29.5 96.5t-53 88t-83.5 62.5t-116.5 24.5q-130 0 -203.5 -62.5t-73.5 -168.5z" />
<glyph unicode=":" horiz-adv-x="489" d="M100 -41v293h291v-293h-291zM100 741v293h291v-293h-291z" />
<glyph unicode=";" horiz-adv-x="536" d="M-12 -260l190 471h268l-190 -471h-268zM145 741v293h291v-293h-291z" />
<glyph unicode="&#x3c;" horiz-adv-x="1036" d="M43 508v217l954 469v-246l-647 -325l647 -312v-256z" />
<glyph unicode="=" horiz-adv-x="1298" d="M129 309v234h1042v-234h-1042zM129 764v231h1042v-231h-1042z" />
<glyph unicode="&#x3e;" horiz-adv-x="1036" d="M43 55v256l647 312l-647 325v246l954 -469v-217z" />
<glyph unicode="?" horiz-adv-x="995" d="M35 1389l35 18q144 72 342 72q230 0 361.5 -96.5t131.5 -284.5q0 -86 -21 -155t-54.5 -113.5t-74.5 -82t-81.5 -72t-74 -71.5t-54.5 -91t-21 -122v-41h-252v41q0 90 21 163t55 121.5t75 89t82.5 73.5t75.5 65t55 74t21 92q0 24 -6 46.5t-24 48.5t-46.5 45t-79.5 31.5 t-118 12.5q-55 0 -120 -13.5t-107 -31.5l-39 -14zM258 2v240h266v-240h-266z" />
<glyph unicode="@" horiz-adv-x="2031" d="M100 403q0 107 13.5 207.5t47 205.5t84.5 195t131 170t181.5 136.5t241.5 89.5t305 33q153 0 278.5 -29t213.5 -77.5t155 -120t107 -148.5t65 -171.5t34 -180.5t9 -183q0 -118 -17.5 -218t-46.5 -169t-68.5 -123t-81 -86.5t-88 -53.5t-84.5 -28.5t-75 -7.5 q-88 0 -157.5 42t-106.5 114q-122 -61 -252 -61q-204 0 -336.5 140.5t-132.5 373.5q0 243 137.5 397t358.5 154q112 0 221 -46l18 52h183v-758q0 -103 17 -147t71 -44q18 0 40 11t49 42t48.5 78.5t36 130.5t14.5 187q0 83 -8.5 155.5t-29.5 143.5t-54.5 128t-84.5 106 t-118 82.5t-157.5 52t-200.5 18.5q-119 0 -219.5 -26.5t-172.5 -71t-128.5 -107t-91.5 -129.5t-58 -143t-32 -144.5t-9 -136.5q0 -163 53 -295.5t142 -215.5t200.5 -127t233.5 -44q144 0 272 64l37 16l101 -190l-37 -19q-185 -96 -400 -96q-66 0 -135 9t-154.5 34.5t-162 66 t-151.5 109t-129 156.5t-87 216t-33 281zM756 475q0 -156 79.5 -240.5t206.5 -84.5q85 0 158 36v582q-83 31 -162 31q-127 0 -204.5 -85t-77.5 -239z" />
<glyph unicode="A" horiz-adv-x="1382" d="M35 0l532 1421h248l533 -1421h-261l-143 373h-522l-141 -373h-246zM502 602h362l-180 528z" />
<glyph unicode="B" horiz-adv-x="1329" d="M164 0v1421h481q118 0 209 -26.5t142.5 -66t84.5 -92t43.5 -97t10.5 -88.5q0 -202 -187 -316q141 -26 220 -129t79 -219q0 -54 -14 -103t-56.5 -102.5t-110.5 -92.5t-186 -64t-272 -25h-444zM416 223h166q103 0 175 8.5t128 29.5t83 60t27 97q0 101 -98 154t-317 53 l-164 -2v-400zM416 836h184h10q147 0 213 45.5t66 134.5t-63.5 135.5t-225.5 46.5h-184v-362z" />
<glyph unicode="C" horiz-adv-x="1396" d="M102 709q0 153 54 286t150.5 229.5t239 152t312.5 55.5q196 0 399 -80l37 -15l-82 -200l-38 14q-156 57 -322 57q-149 0 -262.5 -68.5t-171.5 -180.5t-58 -248q0 -228 141 -364t388 -136q142 0 307 65l37 15l82 -203l-37 -14q-224 -94 -434 -94q-169 0 -310 57.5 t-234.5 156t-145.5 231.5t-52 284z" />
<glyph unicode="D" horiz-adv-x="1503" d="M164 0v1421h479q173 0 308.5 -42t218 -108.5t136.5 -157t74.5 -179t20.5 -182.5q0 -91 -15.5 -177t-53 -174t-95 -159t-148 -127.5t-204.5 -83.5q-56 -14 -126.5 -21.5t-115.5 -8.5t-125 -1h-354zM416 231h164q50 0 84.5 1.5t87 8t93.5 21t86 38t82.5 62.5t65.5 91 q64 111 64 266q0 231 -128 351t-368 120h-231v-959z" />
<glyph unicode="E" horiz-adv-x="1202" d="M164 0v1421h926v-231h-674v-354h600v-232h-600v-373h674v-231h-926z" />
<glyph unicode="F" horiz-adv-x="1173" d="M164 0v1421h917v-231h-665v-418h583v-231h-583v-541h-252z" />
<glyph unicode="G" horiz-adv-x="1486" d="M102 709q0 141 50 270.5t141.5 230.5t234.5 161.5t316 60.5q253 0 475 -125l35 -21l-105 -199l-37 21q-70 37 -166 64.5t-194 27.5q-95 0 -183.5 -33t-158 -93t-111 -152.5t-41.5 -202.5q0 -221 149 -363.5t378 -142.5q85 0 138 12.5t103 40.5v303h-370v222h618v-646 q-71 -52 -112 -74q-171 -91 -416 -91q-148 0 -272.5 42.5t-210 113.5t-145.5 165.5t-88 197.5t-28 210z" />
<glyph unicode="H" horiz-adv-x="1515" d="M164 0v1421h252v-596h684v596h252v-1421h-252v594h-684v-594h-252z" />
<glyph unicode="I" horiz-adv-x="579" d="M164 0v1421h252v-1421h-252z" />
<glyph unicode="J" horiz-adv-x="976" d="M61 18l41 222l43 -11q60 -14 131 -14q60 0 109 12t80 31t54 47t35 53t18.5 57t8 52.5t1.5 44.5v909h252v-909q0 -54 -4.5 -100t-18.5 -101.5t-37 -100t-63.5 -88t-94.5 -73t-133.5 -47.5t-177.5 -18q-105 0 -207 24z" />
<glyph unicode="K" horiz-adv-x="1345" d="M164 0v1421h252v-1421h-252zM436 733l561 688h287l-557 -688l598 -733h-299z" />
<glyph unicode="L" horiz-adv-x="1138" d="M164 0v1421h252v-1190h671v-231h-923z" />
<glyph unicode="M" horiz-adv-x="1761" d="M164 0v1421h336l383 -778l391 778h323v-1421h-251v1071l-361 -706h-213l-356 706v-1071h-252z" />
<glyph unicode="N" horiz-adv-x="1568" d="M164 0v1421h303l686 -1054v1054h252v-1421h-307l-682 1057v-1057h-252z" />
<glyph unicode="O" horiz-adv-x="1605" d="M102 707q0 163 54.5 300.5t149 231t223.5 145.5t276 52q146 0 274 -50t222 -140.5t148 -225t54 -295.5q0 -162 -53.5 -300.5t-147 -234.5t-224 -150t-281.5 -54q-105 0 -205 28t-189 87t-156 143t-106 203t-39 260zM360 727q0 -153 61 -270.5t162.5 -178.5t227.5 -61 q81 0 156 29t138.5 86t101.5 154.5t38 222.5q0 102 -27 186.5t-71 140.5t-103 94.5t-121.5 56t-127.5 17.5q-82 0 -157.5 -28.5t-138.5 -84t-101 -150t-38 -214.5z" />
<glyph unicode="P" horiz-adv-x="1292" d="M164 0v1421h463q48 0 91 -2.5t104.5 -12.5t112 -27t103.5 -49t89 -74.5t59.5 -108t23.5 -146.5q0 -84 -22.5 -152.5t-59 -115t-92 -81t-112 -54t-129.5 -31t-134 -15t-135 -3.5q-36 0 -110 4v-553h-252zM416 784q15 -1 40 -2.5t45.5 -2.5t39.5 -1q52 0 91 1.5t84 6.5 t77.5 14.5t64 25.5t51 38t31.5 55t12 74q0 50 -19.5 87t-50.5 58t-79 33t-94 15.5t-107 3.5h-186v-406z" />
<glyph unicode="Q" horiz-adv-x="1601" d="M102 707q0 163 54.5 300.5t149 231t223.5 145.5t276 52q146 0 274 -50t222 -140.5t148 -225t54 -295.5q0 -275 -145 -469l192 -180l-145 -150l-199 183q-177 -123 -409 -123q-105 0 -205 28t-189 87t-156 143t-106 203t-39 260zM360 727q0 -153 61 -270.5t162.5 -178.5 t227.5 -61q119 0 215 55l-278 258l151 162l279 -266q67 121 67 283q0 102 -27 186.5t-71 140.5t-103 94.5t-121.5 56t-127.5 17.5q-82 0 -157.5 -28.5t-138.5 -84t-101 -150t-38 -214.5z" />
<glyph unicode="R" horiz-adv-x="1312" d="M164 0v1421h463q48 0 91 -2.5t104.5 -12.5t112 -27t103.5 -49t89 -74.5t59.5 -108t23.5 -146.5q0 -306 -317 -407l358 -594h-286l-324 551q-41 -2 -115 -2q-36 0 -110 4v-553h-252zM416 784q15 -1 40 -2.5t45.5 -2.5t39.5 -1q52 0 91 1.5t84 6.5t77.5 14.5t64 25.5t51 38 t31.5 55t12 74q0 50 -19.5 87t-50.5 58t-79 33t-94 15.5t-107 3.5h-186v-406z" />
<glyph unicode="S" horiz-adv-x="1286" d="M102 92l86 232l39 -17q244 -90 387 -90q137 0 223.5 49.5t86.5 129.5q0 46 -31 82q-32 36 -85.5 58t-122.5 46t-141 44.5t-141 55t-123 77.5t-87 113t-33 160q0 176 144.5 288t385.5 112q54 0 106.5 -4.5t89.5 -10.5t78.5 -16.5t62 -16.5t51 -16.5t34.5 -11.5l25 -10 l-80 -230q-199 78 -359 78q-128 0 -203 -47.5t-75 -124.5q0 -43 33 -77t86.5 -55.5t122 -45t140.5 -45t140.5 -57t122 -79t86.5 -113t33 -157.5q0 -62 -19 -119t-63 -111.5t-110.5 -94.5t-168.5 -64t-229 -24q-122 0 -225.5 25.5t-229.5 74.5z" />
<glyph unicode="T" horiz-adv-x="1226" d="M20 1190v231h1186v-231h-467v-1190h-252v1190h-467z" />
<glyph unicode="U" horiz-adv-x="1458" d="M147 512v909h252v-897q0 -61 13 -121q23 -92 106 -141t211 -49t211.5 49t106.5 141q12 55 12 121v897h252v-909q0 -47 -2.5 -84.5t-15.5 -95.5t-35.5 -102.5t-66 -93.5t-103 -81.5t-152 -53.5t-207.5 -21t-207.5 21t-152 53.5t-103 81.5t-66 93.5t-35.5 102.5t-15.5 95.5 t-2.5 84.5z" />
<glyph unicode="V" horiz-adv-x="1343" d="M20 1421h285l393 -1151l359 1151h272l-491 -1421h-299z" />
<glyph unicode="W" horiz-adv-x="2129" d="M25 1421h266l287 -1091l342 1091h288l277 -1091l358 1091h266l-503 -1421h-263l-288 1087l-340 -1087h-262z" />
<glyph unicode="X" horiz-adv-x="1376" d="M41 0l504 739l-463 682h285l321 -473l322 473h284l-463 -682l504 -739h-288l-359 528l-358 -528h-289z" />
<glyph unicode="Y" horiz-adv-x="1312" d="M14 1421h283l358 -551l363 551h285l-531 -778v-643h-252v643z" />
<glyph unicode="Z" horiz-adv-x="1245" d="M72 0v156l739 1034h-690v231h1046v-153l-757 -1037h764v-231h-1102z" />
<glyph unicode="[" horiz-adv-x="745" d="M164 -451v2003h541v-231h-295v-1540h295v-232h-541z" />
<glyph unicode="\" horiz-adv-x="739" d="M-27 1462h256l525 -1593h-258z" />
<glyph unicode="]" horiz-adv-x="745" d="M41 -219h295v1540h-295v231h541v-2003h-541v232z" />
<glyph unicode="^" horiz-adv-x="1245" d="M276 1243l340 359l314 -349l-152 -145l-174 195l-178 -193z" />
<glyph unicode="_" horiz-adv-x="1095" d="M78 -41v231h942v-231h-942z" />
<glyph unicode="`" horiz-adv-x="997" d="M156 1448l114 194l574 -352l-105 -178z" />
<glyph unicode="a" horiz-adv-x="1044" d="M72 272q0 145 105.5 224.5t305.5 91.5l191 10q0 129 -50.5 176t-199.5 47q-68 0 -129.5 -17t-142.5 -50v188q4 1 42.5 15.5t56.5 19.5t56.5 14.5t80 13t89.5 3.5q106 0 186 -20t130.5 -54.5t82 -86.5t44 -110t12.5 -131v-606h-197l-26 66q-137 -86 -291 -86 q-159 0 -252.5 80.5t-93.5 211.5zM315 289q0 -59 45 -93t121 -34q71 0 114.5 14t90.5 43v211l-176 -10q-195 -12 -195 -131z" />
<glyph unicode="b" horiz-adv-x="1157" d="M123 0v1421h246v-456q108 43 235 43q69 0 135 -16.5t129.5 -55.5t111 -96.5t76.5 -146.5t29 -199q0 -240 -132 -377t-371 -137q-123 0 -265 73l-18 -53h-176zM369 217q82 -49 170 -49q134 0 214.5 74t80.5 237q0 181 -76.5 257.5t-210.5 76.5q-91 0 -178 -33v-563z" />
<glyph unicode="c" horiz-adv-x="1021" d="M72 492q0 233 139 374.5t371 141.5q86 0 162 -15.5t118 -32t99 -45.5l-72 -161q-153 61 -266 61q-146 0 -222.5 -88.5t-76.5 -234.5q0 -144 79.5 -234t219.5 -90q113 0 266 61l72 -161q-57 -29 -99 -45.5t-118 -32t-162 -15.5q-232 0 -371 142t-139 375z" />
<glyph unicode="d" horiz-adv-x="1157" d="M72 494q0 109 31 198.5t80.5 146.5t114 96.5t128.5 56t127 16.5q127 0 235 -43v456h246v-1421h-176l-18 53q-142 -73 -265 -73q-239 0 -371 137t-132 377zM324 479q0 -163 80 -237t214 -74q88 0 170 49v563q-87 33 -178 33q-134 0 -210 -76.5t-76 -257.5z" />
<glyph unicode="e" horiz-adv-x="1150" d="M72 492q0 113 37.5 210.5t100 164t145.5 104t173 37.5q225 0 343 -140t118 -376v-95h-670q8 -127 86.5 -178t221.5 -51q47 0 98 5t74 8.5t80 15t61 12.5v-174q-154 -60 -346 -60q-257 0 -389.5 141.5t-132.5 375.5zM324 569h421q0 116 -58.5 181t-151.5 65 q-80 0 -142.5 -66t-68.5 -180z" />
<glyph unicode="f" horiz-adv-x="817" d="M41 797v190h164v80q0 27 3.5 55t14.5 64.5t28.5 69t48.5 65.5t72 56.5t102 38t134 14.5q122 0 256 -41l35 -13l-37 -176l-41 10q-102 21 -153 21q-99 0 -158 -42.5t-59 -113.5v-88h370v-190h-370v-797h-246v797h-164z" />
<glyph unicode="g" horiz-adv-x="1155" d="M72 494q0 115 31 206.5t79.5 147.5t113 93.5t125.5 52t122 14.5q144 0 295 -82l26 61h168v-1007q0 -76 -13.5 -144.5t-50.5 -139t-95 -121.5t-154 -83.5t-221 -32.5q-166 0 -342 68l-37 14l67 180l41 -14q149 -49 246 -49q80 0 137.5 17.5t92 47t54.5 78t27 100t7 122.5 v8q-99 -51 -216 -51q-239 0 -371 137t-132 377zM324 479q0 -163 80 -237t214 -74q88 0 170 49v559q-87 33 -178 33q-135 0 -210.5 -75t-75.5 -255z" />
<glyph unicode="h" horiz-adv-x="1140" d="M123 0v1419h246v-481q161 68 301 68q71 0 127.5 -17.5t93 -43.5t63.5 -66.5t41 -77.5t22 -86t9.5 -81t1.5 -73v-561h-246v604q0 26 -3 49.5t-14.5 52.5t-29.5 50t-52 35t-79 14q-102 0 -235 -55v-750h-246z" />
<glyph unicode="i" horiz-adv-x="491" d="M123 0v987h246v-987h-246zM123 1182v239h246v-239h-246z" />
<glyph unicode="j" horiz-adv-x="479" d="M-92 -373l37 19q61 31 95 58.5t52.5 71.5t23.5 93t5 139v979h246v-1063q0 -55 -6.5 -100t-27.5 -99.5t-57 -97.5t-99.5 -85.5t-149.5 -73.5l-35 -13zM121 1182v239h246v-239h-246z" />
<glyph unicode="k" horiz-adv-x="1128" d="M123 0v1421h246v-1421h-246zM395 545l375 461h299l-381 -461l420 -545h-301z" />
<glyph unicode="l" horiz-adv-x="620" d="M123 256v1165h242v-1093q0 -80 23.5 -118t90.5 -38q47 0 117 16v-159l-32 -12q-31 -12 -50.5 -18t-59.5 -12.5t-79 -6.5q-61 0 -106.5 15.5t-72.5 41t-44 62.5t-23 74.5t-6 82.5z" />
<glyph unicode="m" horiz-adv-x="1718" d="M123 0v987h172l33 -67q134 59 219 75q53 11 102 11q170 0 254 -105q43 20 67.5 30.5t80.5 32t111 32t106 10.5q67 0 120 -16.5t88 -41t60 -64t38.5 -75.5t21 -85t9 -83.5t1.5 -79.5v-561h-246v604q0 26 -3 50t-13.5 52.5t-26.5 49.5t-46 35t-69 14q-82 0 -229 -62 q14 -73 14 -182v-561h-246v604q0 33 -6 63.5t-21 64t-48.5 53.5t-81.5 20q-82 0 -215 -55v-750h-246z" />
<glyph unicode="n" horiz-adv-x="1140" d="M123 0v987h172l33 -67q203 86 342 86q71 0 127.5 -16.5t93.5 -41t63.5 -64t40.5 -75.5t22 -85t9.5 -83.5t1.5 -79.5v-561h-246v604q0 26 -3 49.5t-14.5 52.5t-29.5 50t-52 35t-79 14q-102 0 -235 -55v-750h-246z" />
<glyph unicode="o" horiz-adv-x="1157" d="M72 492q0 233 138.5 374.5t369.5 141.5q232 0 368.5 -140.5t136.5 -373.5q0 -231 -138 -372.5t-369 -141.5t-368.5 140.5t-137.5 371.5zM324 492q0 -151 72.5 -234.5t181.5 -83.5q111 0 182 83t71 235t-72 237.5t-181 85.5q-108 0 -181 -86t-73 -237z" />
<glyph unicode="p" horiz-adv-x="1159" d="M123 -530v1517h172l27 -61q151 82 294 82q61 0 122 -14.5t125.5 -52t113 -93.5t79.5 -147.5t31 -206.5q0 -240 -132 -377t-371 -137q-116 0 -215 51v-561h-246zM371 217q82 -49 170 -49q134 0 214.5 74t80.5 237q0 180 -76 255t-211 75q-91 0 -178 -33v-559z" />
<glyph unicode="q" horiz-adv-x="1159" d="M72 494q0 115 31 206.5t79.5 147.5t113 93.5t125.5 52t122 14.5q144 0 295 -82l26 61h172v-1517h-245v561q-99 -51 -216 -51q-239 0 -371 137t-132 377zM324 479q0 -163 80 -237t214 -74q88 0 170 49v559q-87 33 -178 33q-135 0 -210.5 -75t-75.5 -255z" />
<glyph unicode="r" horiz-adv-x="829" d="M123 0v987h172l33 -67q139 88 290 88q99 0 181 -39v-207h-17q-84 37 -188 37q-99 0 -225 -37v-762h-246z" />
<glyph unicode="s" horiz-adv-x="952" d="M92 723q0 35 7 67t33 74t69 72t123.5 51t187.5 21q141 0 301 -47v-211q-176 53 -295 53q-60 0 -101 -9.5t-59.5 -25t-25 -29t-6.5 -28.5q0 -24 24.5 -42.5t64 -31t90.5 -28t103.5 -30.5t103.5 -40t90.5 -56t64 -79.5t24.5 -108.5q0 -43 -10.5 -83.5t-41 -84t-78 -75 t-129 -52t-186.5 -20.5q-172 0 -352 73v221l37 -14q187 -70 324 -70q113 0 156.5 25t43.5 80q-1 22 -26.5 39.5t-65 29.5t-90 27t-103 30t-102.5 41.5t-89 59.5t-63 84.5t-24 116.5z" />
<glyph unicode="t" horiz-adv-x="872" d="M41 797v190h164v285h246v-285h346v-190h-346v-473q0 -66 36 -105t129 -39q76 0 189 29l37 -174q-58 -22 -136.5 -38.5t-144.5 -16.5q-91 0 -157 19t-104 49t-60 76t-28.5 90.5t-6.5 102.5v480h-164z" />
<glyph unicode="u" horiz-adv-x="1120" d="M113 424v561h245v-604q0 -34 6.5 -64t23.5 -63.5t55 -53.5t94 -20q105 0 215 56v749h245v-987h-172l-32 68q-5 -2 -30 -13t-35 -15t-35 -13.5t-40 -14t-40.5 -11.5t-45.5 -10.5t-45.5 -6t-50.5 -2.5q-71 0 -127.5 16t-93.5 41t-63.5 64t-40.5 75t-22 85.5t-9.5 83.5 t-1.5 79z" />
<glyph unicode="v" horiz-adv-x="1081" d="M31 987h274l236 -727l231 727h258l-368 -987h-252z" />
<glyph unicode="w" horiz-adv-x="1728" d="M51 987h264l224 -727l202 727h246l203 -727l223 727h264l-377 -987h-235l-201 702l-200 -702h-236z" />
<glyph unicode="x" horiz-adv-x="1085" d="M31 987h272l227 -340l218 340h278l-356 -502l364 -485h-291l-215 319l-211 -319h-270l334 485z" />
<glyph unicode="y" horiz-adv-x="1153" d="M0 987h283l292 -758l267 758h260l-604 -1517h-277l225 522z" />
<glyph unicode="z" horiz-adv-x="1052" d="M123 0v127l467 649h-467v211h790v-127l-471 -649h488v-211h-807z" />
<glyph unicode="{" horiz-adv-x="804" d="M39 444v209l35 4q79 13 136 78.5t73 186.5q1 6 12 161q11 111 46.5 197t79.5 134.5t99.5 80.5t97 43t80.5 14l35 2l49 -206l-45 -7q-48 -6 -89 -34t-68 -68q-30 -46 -44 -118t-18.5 -145t-14.5 -149t-45 -150t-98 -128q63 -54 98.5 -128.5t46 -150.5t15 -149t17.5 -144.5 t43 -117.5q27 -39 68 -67t89 -34l45 -6l-49 -209l-35 4q-35 2 -74.5 12t-96 41t-101.5 77.5t-82.5 131t-48.5 193.5q-2 24 -5 70t-5.5 75t-10 70t-19 70t-33 59.5t-52.5 52.5q-47 33 -96 41z" />
<glyph unicode="|" horiz-adv-x="747" d="M254 -348v1990h246v-1990h-246z" />
<glyph unicode="}" horiz-adv-x="804" d="M29 -248l45 6q94 11 155 101q30 46 43 117.5t17.5 144.5t15 149t46 150.5t98.5 128.5q-63 54 -98 128t-45 150t-14.5 149t-18.5 145t-44 118q-61 91 -155 102l-45 7l47 206l35 -2q40 -3 81.5 -14t97 -43.5t99 -81t79 -134.5t46.5 -196q8 -110 14 -161q16 -121 73 -186.5 t136 -78.5l33 -4v-209l-33 -4q-51 -9 -98 -41q-31 -22 -52.5 -52.5t-33 -59.5t-19 -70t-10 -70t-5.5 -75t-5 -70q-11 -109 -48.5 -193.5t-82.5 -131t-101.5 -77.5t-96 -41t-74.5 -12l-35 -4z" />
<glyph unicode="~" horiz-adv-x="1193" d="M184 604l9 43q2 10 7 36t8 41t9.5 41.5t13 43.5t17 40t22.5 38t28.5 32t36 26t45 15.5t54.5 6.5q51 -2 98 -22t80 -46.5t59.5 -52.5t48 -44t34.5 -18q34 0 56 135l1.5 6t1 5t0.5 6l6 39l191 -29l-9 -43q-2 -9 -7.5 -40t-9 -46.5t-11.5 -46.5t-16.5 -48t-21.5 -42.5 t-29.5 -40t-37.5 -29.5t-48.5 -21.5t-59.5 -6.5q-63 3 -120 32t-89.5 62t-63.5 60.5t-47 27.5q-12 0 -21 -9.5t-16 -32.5t-10 -38t-9 -49q-2 -11 -3 -17l-6 -40z" />
<glyph unicode="&#xa1;" horiz-adv-x="649" d="M184 705v282h283v-282h-283zM199 528h252v-1063h-252v1063z" />
<glyph unicode="&#xa2;" horiz-adv-x="1019" d="M109 713q0 222 102.5 370t290.5 187v282h203v-272q109 -10 217 -59l34 -15l-63 -194l-39 12q-106 37 -205 37q-150 0 -224.5 -80.5t-74.5 -232.5q0 -83 20 -146.5t51.5 -100.5t75.5 -60.5t85 -31.5t88 -8q87 0 172 31l39 12l65 -188l-37 -14q-112 -44 -204 -52v-296h-203 v301q-84 15 -153.5 52.5t-124 99.5t-85 155.5t-30.5 210.5z" />
<glyph unicode="&#xa3;" horiz-adv-x="1298" d="M111 -41v217h243v445h-176v217h176v100q0 101 21.5 184.5t60.5 140.5t89 99t111 65.5t121.5 34.5t125.5 11q120 0 245 -41l43 -13l-77 -196l-35 8q-90 22 -156 22q-92 0 -154 -26t-93.5 -76t-43.5 -106.5t-12 -133.5v-73h530v-217h-530v-445h590v-217h-1079z" />
<glyph unicode="&#xa4;" horiz-adv-x="1298" d="M127 401l174 174q-39 77 -39 166q0 86 39 166l-174 174l182 185l176 -176q75 38 164 38q88 0 166 -38l174 174l182 -185l-174 -172q39 -77 39 -166q0 -91 -37 -166l172 -172l-184 -182l-172 172q-80 -39 -166 -39q-93 0 -166 37l-172 -172zM492 741q0 -68 45.5 -115.5 t111.5 -47.5q65 0 112.5 48t47.5 115q0 68 -47.5 116t-112.5 48t-111 -47.5t-46 -116.5z" />
<glyph unicode="&#xa5;" horiz-adv-x="1298" d="M72 1462h280l299 -559l307 559h271l-426 -723h250v-207h-289v-116h289v-207h-289v-250h-242v250h-274v207h274v116h-274v207h237z" />
<glyph unicode="&#xa6;" horiz-adv-x="882" d="M319 -348v850h246v-850h-246zM319 797v845h246v-845h-246z" />
<glyph unicode="&#xa7;" horiz-adv-x="1134" d="M109 23l73 198l37 -12q163 -59 291 -59q235 0 235 137q0 29 -25.5 51.5t-67 37.5t-94.5 32t-108.5 33.5t-108.5 44t-94.5 61t-67 86.5t-25.5 119q0 102 71 190q-71 74 -71 184q0 45 14.5 90t51 92.5t91 84t143 59.5t197.5 23q33 0 65 -2.5t52.5 -4.5t49.5 -8.5t39 -9 t41 -11t36 -9.5l41 -11l-72 -211l-39 13q-110 36 -237 36q-94 0 -152.5 -29.5t-58.5 -78.5q0 -28 26 -51.5t68 -40t96 -36t110 -38t110 -46.5t96 -61t68 -83t26 -111q0 -114 -68 -205q68 -76 68 -172q0 -48 -13 -95t-47.5 -97t-88 -87.5t-142 -62t-201.5 -24.5h-12 q-198 0 -367 67zM416 770q0 -23 16 -42t53.5 -37t66.5 -29t89.5 -30.5t87.5 -29.5q16 24 16 60q0 21 -13.5 38.5t-32.5 30t-53 25.5t-63 21.5t-74 22t-75 23.5q-18 -23 -18 -53z" />
<glyph unicode="&#xa8;" horiz-adv-x="1198" d="M242 1194v268h268v-268h-268zM690 1194v268h268v-268h-268z" />
<glyph unicode="&#xa9;" horiz-adv-x="1759" d="M129 682q0 145 58 280t157 236t239.5 162t297.5 61q155 0 294.5 -60t238.5 -160.5t157.5 -236t58.5 -282.5t-58.5 -282.5t-157.5 -235.5t-238.5 -159.5t-294.5 -59.5t-295 59.5t-240 159t-158.5 235.5t-58.5 283zM344 682q0 -140 71 -260t195 -191t271 -71 q111 0 210.5 42t170 112.5t112 166.5t41.5 201t-41.5 201t-112 167t-170.5 113.5t-210 42.5q-111 0 -210.5 -42.5t-171 -113.5t-113.5 -167t-42 -201zM518 674q0 92 23 165.5t61 120.5t89 78.5t104 44.5t110 13q116 0 219 -47l33 -15l-55 -162l-39 15q-70 24 -143 24 q-203 0 -203 -217q0 -237 215 -237q61 0 125 22l37 13l57 -158l-37 -15q-104 -40 -219 -40q-54 0 -104.5 11.5t-101 40t-88 72t-60.5 113.5t-23 158z" />
<glyph unicode="&#xaa;" horiz-adv-x="765" d="M150 915q0 51 15.5 88t42.5 60t71.5 37t96 19.5t122.5 6.5q0 19 -3.5 34t-14 34t-36 30t-63.5 11q-56 0 -164 -27l-24 -8l-29 119l20 6q103 39 207 39q69 0 119 -17.5t75.5 -40.5t39.5 -59t17 -60.5t3 -56.5v-395h-110l-15 35q-63 -53 -141 -53q-100 0 -164.5 52.5 t-64.5 145.5zM297 918q0 -25 25.5 -47.5t70.5 -22.5q62 0 105 61v84h-2q-102 0 -150.5 -17t-48.5 -58z" />
<glyph unicode="&#xab;" horiz-adv-x="1077" d="M25 623l284 405h289l-305 -405l305 -406h-289zM496 623l284 405h287l-303 -405l303 -406h-287z" />
<glyph unicode="&#xac;" horiz-adv-x="1398" d="M84 543v229h1233v-530h-232v301h-1001z" />
<glyph unicode="&#xad;" horiz-adv-x="1073" d="M178 549v219h717v-219h-717z" />
<glyph unicode="&#xae;" horiz-adv-x="1230" d="M66 1042q0 148 74 273t201 197.5t275 72.5t275 -72.5t201.5 -197.5t74.5 -273t-74.5 -273t-201.5 -197t-275 -72q-151 0 -278 73.5t-199.5 198t-72.5 270.5zM225 1042q0 -155 114 -267.5t277 -112.5q139 0 250 90h-149l-101 206h-71v-206h-144v594h248q58 0 99.5 -16.5 t63 -45.5t31 -60t9.5 -67q0 -124 -96 -172l116 -229q134 115 134 286q0 156 -114 269.5t-276 113.5t-276.5 -113.5t-114.5 -269.5zM545 1085h65q56 0 79.5 14.5t23.5 47.5q0 38 -22.5 52.5t-74.5 14.5h-71v-129z" />
<glyph unicode="&#xaf;" horiz-adv-x="1398" d="M244 1450v231h911v-231h-911z" />
<glyph unicode="&#xb0;" horiz-adv-x="587" d="M35 1235q0 109 76.5 186.5t183.5 77.5q106 0 183 -77t77 -187t-76.5 -188t-183.5 -78q-106 0 -183 78t-77 188zM207 1235q0 -38 24.5 -65t63.5 -27q35 0 60.5 27.5t25.5 64.5t-25 64.5t-61 27.5q-38 0 -63 -27t-25 -65z" />
<glyph unicode="&#xb1;" horiz-adv-x="1398" d="M178 109v219h1043v-219h-1043zM178 831v220h408v411h227v-411h408v-220h-408v-411h-227v411h-408z" />
<glyph unicode="&#xb2;" horiz-adv-x="798" d="M98 1473l21 10q124 65 252 65q114 0 192 -62.5t78 -160.5q0 -53 -23 -99t-61 -83.5t-78.5 -73t-83.5 -83t-69 -97.5h327v-156h-530v94q26 84 72 157.5t92.5 120.5t89 85t69.5 68t27 53q0 31 -33.5 58.5t-85.5 27.5q-58 0 -178 -49l-22 -11z" />
<glyph unicode="&#xb3;" horiz-adv-x="798" d="M94 780l47 140l25 -7q101 -28 164 -28q60 0 103.5 28.5t43.5 73.5q0 103 -201 103h-24v151h24q173 0 173 82q0 25 -25.5 45.5t-75.5 20.5q-61 0 -160 -43l-22 -13l-60 142l21 10q124 61 231 61t180.5 -59t73.5 -150q0 -93 -63 -153q94 -59 94 -178q0 -125 -89.5 -203 t-225.5 -78q-105 0 -211 45z" />
<glyph unicode="&#xb4;" horiz-adv-x="1142" d="M246 1190l506 377l145 -172l-508 -369z" />
<glyph unicode="&#xb5;" horiz-adv-x="1185" d="M150 -451v1479h245v-598q0 -276 203 -276q77 0 205 61v813h246v-1069h-185l-20 49q-138 -76 -275 -76q-95 0 -174 43v-426h-245z" />
<glyph unicode="&#xb6;" horiz-adv-x="1325" d="M88 1133q0 66 13 122t33 96.5t52 72.5t63 52.5t73 35.5t74.5 22.5t75.5 11.5t68.5 5t59.5 1h578v-1593h-246v1362h-160v-1362h-246v686q-60 5 -117 21t-117 53t-104 89.5t-72 136.5t-28 188z" />
<glyph unicode="&#xb7;" horiz-adv-x="589" d="M150 588v291h290v-291h-290z" />
<glyph unicode="&#xb8;" horiz-adv-x="1099" d="M336 -473l49 170l39 -12q142 -45 194 -45q32 0 46 11.5t14 24.5q0 6 -2 11.5t-7.5 10t-12 8.5t-17.5 9t-21.5 8.5t-27.5 9t-32 10t-38.5 11.5t-42.5 13l-39 10l78 286h211l-43 -169q29 -9 54.5 -22.5t55 -37t47 -61.5t17.5 -86q0 -88 -66.5 -157t-177.5 -69 q-14 0 -29.5 1.5t-27.5 3t-30 5.5t-28 6.5t-31.5 9t-29 8.5t-32.5 10t-31 10z" />
<glyph unicode="&#xb9;" horiz-adv-x="542" d="M31 1477l217 59h121v-801h-164v635l-137 -39z" />
<glyph unicode="&#xba;" horiz-adv-x="761" d="M43 1147q0 96 29 173.5t77.5 125.5t108.5 73t125 25q45 0 87.5 -9t89.5 -36t81.5 -69.5t57 -116t22.5 -168.5q0 -192 -96.5 -305t-243.5 -113q-68 0 -125.5 21.5t-106.5 68t-77.5 131t-28.5 199.5zM207 1149q0 -83 17 -140t45.5 -84t55.5 -37.5t58 -10.5q30 0 57 10.5 t54.5 36.5t44 82.5t16.5 136.5q0 248 -174 248q-24 0 -45.5 -5t-46 -21t-42 -41.5t-29 -70.5t-11.5 -104z" />
<glyph unicode="&#xbb;" horiz-adv-x="1077" d="M10 217l305 406l-305 405h289l283 -405l-283 -406h-289zM481 217l305 406l-305 405h287l285 -405l-285 -406h-287z" />
<glyph unicode="&#xbc;" horiz-adv-x="1798" d="M121 1386l217 60h139v-852h-182v663l-133 -36zM315 -25l850 1471h234l-850 -1471h-234zM999 170v123l379 567h195v-530h106v-160h-106v-195h-182v195h-392zM1219 330h172v270z" />
<glyph unicode="&#xbd;" horiz-adv-x="1896" d="M121 1386l217 60h139v-862h-182v673l-133 -36zM315 -25l850 1471h234l-850 -1471h-234zM1155 784l23 13q147 69 274 69q126 0 211.5 -67t85.5 -174q0 -58 -25.5 -108.5t-67.5 -92t-87 -81t-93.5 -93t-76.5 -109.5h362v-166h-579v101q28 92 79 172.5t102 132.5t98.5 94 t77.5 75t30 58q0 35 -38 64.5t-97 29.5q-58 0 -195 -53l-22 -8z" />
<glyph unicode="&#xbe;" horiz-adv-x="1949" d="M164 637l51 149l23 -6q127 -35 182 -35q67 0 116.5 33t49.5 84q0 58 -54 86.5t-172 28.5h-24v164h24q50 0 90 7t71.5 28.5t31.5 56.5q0 29 -29 51.5t-84 22.5q-15 0 -29.5 -1.5t-30 -5.5t-26.5 -7t-27 -9t-22.5 -9t-22.5 -10t-18 -8l-24 -10l-64 150l23 10q138 68 254 68 q117 0 195.5 -64.5t78.5 -163.5q0 -98 -72 -170q109 -65 109 -194q0 -136 -99 -222t-249 -86q-105 0 -232 52zM475 -25l850 1471h234l-850 -1471h-234zM1151 170v123l377 567h194v-530h109v-160h-109v-195h-182v195h-389zM1368 330h172v270z" />
<glyph unicode="&#xbf;" horiz-adv-x="1046" d="M76 -139q0 58 28 120t70 113t91.5 107.5t91.5 104.5t70 102.5t28 103.5v41h252v-41q0 -67 -21 -128.5t-55 -109t-75.5 -91t-82.5 -83.5t-75 -79t-55 -84.5t-21 -92.5q0 -75 60.5 -129.5t172.5 -54.5q109 0 270 66l37 16l82 -197l-35 -16q-99 -47 -186.5 -69.5 t-194.5 -22.5q-74 0 -153 32t-146 86.5t-110 135.5t-43 170zM440 705v282h283v-282h-283z" />
<glyph unicode="&#xc0;" horiz-adv-x="1382" d="M35 0l532 1421h248l533 -1421h-261l-143 373h-522l-141 -373h-246zM371 1821l145 172l506 -377l-143 -164zM502 602h362l-180 528z" />
<glyph unicode="&#xc1;" horiz-adv-x="1382" d="M35 0l532 1421h248l533 -1421h-261l-143 373h-522l-141 -373h-246zM371 1616l506 377l145 -172l-508 -369zM502 602h362l-180 528z" />
<glyph unicode="&#xc2;" horiz-adv-x="1382" d="M35 0l532 1421h248l533 -1421h-261l-143 373h-522l-141 -373h-246zM369 1628l340 359l315 -349l-152 -145l-176 195l-176 -193zM502 602h362l-180 528z" />
<glyph unicode="&#xc3;" horiz-adv-x="1382" d="M35 0l532 1421h248l533 -1421h-261l-143 373h-522l-141 -373h-246zM227 1540l17 39q3 7 14.5 31.5t17 36t19 36t22.5 38t24.5 35t29.5 34t33 28t38.5 23.5t43.5 13.5t49 5.5q52 -2 98 -21.5t77 -46t57 -52t48.5 -43.5t40.5 -18q12 0 23 7.5t22.5 25.5t19.5 32t23 45 t23 48l18 35l180 -80l-18 -37q-3 -6 -14.5 -31t-17 -36t-19 -36t-22.5 -38.5t-25 -35t-29.5 -33.5t-32.5 -27.5t-38.5 -23.5t-43.5 -13.5t-49 -5.5q-63 3 -119 32t-88 62t-63 60.5t-51 27.5q-12 0 -23 -7.5t-22.5 -26t-19.5 -33.5t-22.5 -46.5t-23.5 -48.5l-18 -35zM502 602 h362l-180 528z" />
<glyph unicode="&#xc4;" horiz-adv-x="1382" d="M35 0l532 1421h248l533 -1421h-261l-143 373h-522l-141 -373h-246zM338 1579v268h268v-268h-268zM502 602h362l-180 528zM786 1579v268h269v-268h-269z" />
<glyph unicode="&#xc5;" horiz-adv-x="1546" d="M129 0l526 1337q-71 38 -114 101.5t-43 138.5q0 124 99 210.5t237 86.5q137 0 236 -86t99 -211q0 -75 -44 -140t-117 -102l524 -1335h-260l-160 373h-580l-157 -373h-246zM621 602h403l-201 528zM709 1577q0 -44 35 -78.5t92 -34.5q52 0 86 34t34 79q0 44 -34 77.5 t-86 33.5q-55 0 -91 -33.5t-36 -77.5z" />
<glyph unicode="&#xc6;" horiz-adv-x="2078" d="M129 0l610 1421h1198v-231h-643v-342h588v-232h-588v-385h643v-231h-911v373h-475l-170 -373h-252zM647 602h379v588h-121z" />
<glyph unicode="&#xc7;" horiz-adv-x="1396" d="M102 709q0 153 54 286t150.5 229.5t239 152t312.5 55.5q196 0 399 -80l37 -15l-82 -200l-38 14q-156 57 -322 57q-149 0 -262.5 -68.5t-171.5 -180.5t-58 -248q0 -228 141 -364t388 -136q142 0 307 65l37 15l82 -203l-37 -14q-224 -94 -434 -94q-169 0 -310 57.5 t-234.5 156t-145.5 231.5t-52 284zM469 -473l49 170l39 -12q142 -45 195 -45q32 0 45.5 11t13.5 25q0 6 -2 11.5t-7.5 10t-12 8.5t-17.5 9t-21.5 8.5t-27.5 9t-32 10t-38.5 11.5t-42.5 13l-39 10l78 286h211l-43 -169q29 -9 54.5 -22.5t55 -37t47 -61.5t17.5 -86 q0 -88 -66 -157t-177 -69q-12 0 -24.5 1t-27 3t-25 4t-27 6t-25.5 6t-28 8t-26 8t-29 9t-28 9z" />
<glyph unicode="&#xc8;" horiz-adv-x="1202" d="M164 0v1421h926v-231h-674v-354h600v-232h-600v-373h674v-231h-926zM317 1821l146 172l506 -377l-144 -164z" />
<glyph unicode="&#xc9;" horiz-adv-x="1202" d="M164 0v1421h926v-231h-674v-354h600v-232h-600v-373h674v-231h-926zM317 1616l506 377l146 -172l-508 -369z" />
<glyph unicode="&#xca;" horiz-adv-x="1202" d="M164 0v1421h926v-231h-674v-354h600v-232h-600v-373h674v-231h-926zM315 1628l340 359l316 -349l-152 -145l-176 195l-176 -193z" />
<glyph unicode="&#xcb;" horiz-adv-x="1202" d="M164 0v1421h926v-231h-674v-354h600v-232h-600v-373h674v-231h-926zM285 1579v268h268v-268h-268zM733 1579v268h268v-268h-268z" />
<glyph unicode="&#xcc;" horiz-adv-x="579" d="M-35 1821l146 172l505 -377l-143 -164zM164 0v1421h252v-1421h-252z" />
<glyph unicode="&#xcd;" horiz-adv-x="579" d="M-35 1616l506 377l145 -172l-507 -369zM164 0v1421h252v-1421h-252z" />
<glyph unicode="&#xce;" horiz-adv-x="579" d="M-37 1628l340 359l315 -349l-151 -145l-176 195l-176 -193zM164 0v1421h252v-1421h-252z" />
<glyph unicode="&#xcf;" horiz-adv-x="751" d="M88 1556v269h266v-269h-266zM291 0v1421h252v-1421h-252zM477 1556v269h266v-269h-266z" />
<glyph unicode="&#xd0;" horiz-adv-x="1767" d="M117 616v234h219v571h475q45 0 87 -2t107.5 -9.5t122.5 -20.5t125 -37.5t123 -58t108.5 -85t90 -115t58.5 -151t22 -190.5q0 -752 -907 -752h-412v616h-219zM588 231h166q56 0 101.5 2.5t106.5 9.5t109 22t101 38.5t92 60.5t71 85.5t49 117.5t17 152q0 65 -14.5 126 t-54 125.5t-102 111.5t-167.5 77.5t-240 30.5h-235v-340h260v-234h-260v-385z" />
<glyph unicode="&#xd1;" horiz-adv-x="1568" d="M164 0v1421h303l686 -1054v1054h252v-1421h-307l-682 1057v-1057h-252zM317 1540l17 39q3 7 14.5 31.5t17 36t19 36t22.5 38t24.5 35t29.5 34t33 28t38.5 23.5t43.5 13.5t49 5.5q52 -2 98 -21.5t77 -46t57 -52t48.5 -43.5t40.5 -18q12 0 23 7.5t22.5 25.5t19.5 32t23 45 t23 48l18 35l180 -80l-18 -37q-3 -6 -14.5 -31t-17 -36t-19 -36t-22.5 -38.5t-25 -35t-29.5 -33.5t-32.5 -27.5t-38.5 -23.5t-43.5 -13.5t-49 -5.5q-63 3 -119 32t-88 62t-63 60.5t-51 27.5q-12 0 -23 -7.5t-22.5 -26t-19.5 -33.5t-22.5 -46.5t-23.5 -48.5l-18 -35z" />
<glyph unicode="&#xd2;" horiz-adv-x="1605" d="M102 707q0 163 54.5 300.5t149 231t223.5 145.5t276 52q146 0 274 -50t222 -140.5t148 -225t54 -295.5q0 -162 -53.5 -300.5t-147 -234.5t-224 -150t-281.5 -54q-105 0 -205 28t-189 87t-156 143t-106 203t-39 260zM360 727q0 -153 61 -270.5t162.5 -178.5t227.5 -61 q81 0 156 29t138.5 86t101.5 154.5t38 222.5q0 102 -27 186.5t-71 140.5t-103 94.5t-121.5 56t-127.5 17.5q-82 0 -157.5 -28.5t-138.5 -84t-101 -150t-38 -214.5zM477 1821l146 172l505 -377l-143 -164z" />
<glyph unicode="&#xd3;" horiz-adv-x="1605" d="M102 707q0 163 54.5 300.5t149 231t223.5 145.5t276 52q146 0 274 -50t222 -140.5t148 -225t54 -295.5q0 -162 -53.5 -300.5t-147 -234.5t-224 -150t-281.5 -54q-105 0 -205 28t-189 87t-156 143t-106 203t-39 260zM360 727q0 -153 61 -270.5t162.5 -178.5t227.5 -61 q81 0 156 29t138.5 86t101.5 154.5t38 222.5q0 102 -27 186.5t-71 140.5t-103 94.5t-121.5 56t-127.5 17.5q-82 0 -157.5 -28.5t-138.5 -84t-101 -150t-38 -214.5zM477 1616l506 377l145 -172l-507 -369z" />
<glyph unicode="&#xd4;" horiz-adv-x="1605" d="M102 707q0 163 54.5 300.5t149 231t223.5 145.5t276 52q146 0 274 -50t222 -140.5t148 -225t54 -295.5q0 -162 -53.5 -300.5t-147 -234.5t-224 -150t-281.5 -54q-105 0 -205 28t-189 87t-156 143t-106 203t-39 260zM360 727q0 -153 61 -270.5t162.5 -178.5t227.5 -61 q81 0 156 29t138.5 86t101.5 154.5t38 222.5q0 102 -27 186.5t-71 140.5t-103 94.5t-121.5 56t-127.5 17.5q-82 0 -157.5 -28.5t-138.5 -84t-101 -150t-38 -214.5zM475 1628l340 359l315 -349l-151 -145l-176 195l-176 -193z" />
<glyph unicode="&#xd5;" horiz-adv-x="1605" d="M102 707q0 163 54.5 300.5t149 231t223.5 145.5t276 52q146 0 274 -50t222 -140.5t148 -225t54 -295.5q0 -162 -53.5 -300.5t-147 -234.5t-224 -150t-281.5 -54q-105 0 -205 28t-189 87t-156 143t-106 203t-39 260zM334 1540l16 39q3 7 14.5 31.5t17 36t19 36t22.5 38 t24.5 35t29.5 34t33 28t38.5 23.5t43.5 13.5t49 5.5q52 -2 98 -21.5t77.5 -46t57.5 -52t48.5 -43.5t40.5 -18q12 0 23 7.5t22.5 25t19 32.5t22 45.5t23.5 47.5l19 35l180 -80l-19 -37q-3 -5 -16.5 -34.5t-19.5 -41t-21 -40t-26.5 -42.5t-29.5 -37t-35.5 -35t-40 -25.5 t-48 -19t-53.5 -5.5q-52 2 -98.5 21.5t-78 46t-58 52.5t-48.5 44t-39 18q-12 0 -23 -7.5t-22.5 -26t-19.5 -33.5t-22.5 -46.5t-23.5 -48.5l-18 -35zM360 727q0 -153 61 -270.5t162.5 -178.5t227.5 -61q81 0 156 29t138.5 86t101.5 154.5t38 222.5q0 102 -27 186.5t-71 140.5 t-103 94.5t-121.5 56t-127.5 17.5q-82 0 -157.5 -28.5t-138.5 -84t-101 -150t-38 -214.5z" />
<glyph unicode="&#xd6;" horiz-adv-x="1605" d="M102 707q0 163 54.5 300.5t149 231t223.5 145.5t276 52q146 0 274 -50t222 -140.5t148 -225t54 -295.5q0 -162 -53.5 -300.5t-147 -234.5t-224 -150t-281.5 -54q-105 0 -205 28t-189 87t-156 143t-106 203t-39 260zM360 727q0 -153 61 -270.5t162.5 -178.5t227.5 -61 q81 0 156 29t138.5 86t101.5 154.5t38 222.5q0 102 -27 186.5t-71 140.5t-103 94.5t-121.5 56t-127.5 17.5q-82 0 -157.5 -28.5t-138.5 -84t-101 -150t-38 -214.5zM444 1579v268h269v-268h-269zM893 1579v268h268v-268h-268z" />
<glyph unicode="&#xd7;" horiz-adv-x="1462" d="M182 328l371 325l-363 318l162 164l404 -332l395 325l162 -163l-369 -326l363 -317l-164 -164l-404 331l-393 -323z" />
<glyph unicode="&#xd8;" horiz-adv-x="1918" d="M160 127l192 162q-116 171 -116 418q0 219 95.5 385t265 255t388.5 89q322 0 522 -176l189 157l108 -129l-184 -153q115 -173 115 -410q0 -330 -209 -534.5t-547 -204.5q-148 0 -281.5 45t-234.5 133l-197 -164zM494 727q0 -152 63 -266l752 633q-135 110 -332 110 q-72 0 -140 -17t-130.5 -55t-109.5 -92.5t-75 -135t-28 -177.5zM664 332q139 -117 329 -117q89 0 172.5 29t154.5 86.5t114 155.5t43 223q0 148 -60 256z" />
<glyph unicode="&#xd9;" horiz-adv-x="1458" d="M147 512v909h252v-897q0 -61 13 -121q23 -92 106 -141t211 -49t211.5 49t106.5 141q12 55 12 121v897h252v-909q0 -47 -2.5 -84.5t-15.5 -95.5t-35.5 -102.5t-66 -93.5t-103 -81.5t-152 -53.5t-207.5 -21t-207.5 21t-152 53.5t-103 81.5t-66 93.5t-35.5 102.5t-15.5 95.5 t-2.5 84.5zM420 1821l145 172l506 -377l-143 -164z" />
<glyph unicode="&#xda;" horiz-adv-x="1458" d="M147 512v909h252v-897q0 -61 13 -121q23 -92 106 -141t211 -49t211.5 49t106.5 141q12 55 12 121v897h252v-909q0 -47 -2.5 -84.5t-15.5 -95.5t-35.5 -102.5t-66 -93.5t-103 -81.5t-152 -53.5t-207.5 -21t-207.5 21t-152 53.5t-103 81.5t-66 93.5t-35.5 102.5t-15.5 95.5 t-2.5 84.5zM420 1616l506 377l145 -172l-508 -369z" />
<glyph unicode="&#xdb;" horiz-adv-x="1458" d="M147 512v909h252v-897q0 -61 13 -121q23 -92 106 -141t211 -49t211.5 49t106.5 141q12 55 12 121v897h252v-909q0 -47 -2.5 -84.5t-15.5 -95.5t-35.5 -102.5t-66 -93.5t-103 -81.5t-152 -53.5t-207.5 -21t-207.5 21t-152 53.5t-103 81.5t-66 93.5t-35.5 102.5t-15.5 95.5 t-2.5 84.5zM418 1628l340 359l315 -349l-151 -145l-177 195l-176 -193z" />
<glyph unicode="&#xdc;" horiz-adv-x="1458" d="M147 512v909h252v-897q0 -61 13 -121q23 -92 106 -141t211 -49t211.5 49t106.5 141q12 55 12 121v897h252v-909q0 -47 -2.5 -84.5t-15.5 -95.5t-35.5 -102.5t-66 -93.5t-103 -81.5t-152 -53.5t-207.5 -21t-207.5 21t-152 53.5t-103 81.5t-66 93.5t-35.5 102.5t-15.5 95.5 t-2.5 84.5zM387 1579v268h268v-268h-268zM836 1579v268h268v-268h-268z" />
<glyph unicode="&#xdd;" horiz-adv-x="1312" d="M14 1421h283l358 -551l363 551h285l-531 -778v-643h-252v643zM334 1616l506 377l145 -172l-508 -369z" />
<glyph unicode="&#xde;" horiz-adv-x="1361" d="M164 0v1421h252v-262q143 10 262 10q107 0 192.5 -10.5t163 -38t129 -71.5t81.5 -114t30 -163q0 -52 -8.5 -102.5t-31.5 -106.5t-58.5 -102t-94 -85t-133.5 -59q-132 -32 -391 -32q-47 0 -141 4v-289h-252zM416 520q129 -6 178 -6h31q68 0 117 3.5t104.5 18t90.5 39 t58 69.5t23 108q0 55 -22 94.5t-56.5 62.5t-88.5 36.5t-105.5 17.5t-120.5 4q-104 0 -209 -6v-441z" />
<glyph unicode="&#xdf;" horiz-adv-x="1421" d="M201 0v981q0 93 26 169t70 127t103.5 86.5t125.5 51t138 15.5q86 0 159.5 -22.5t124 -60t86.5 -86t53 -99.5t17 -101q0 -54 -21.5 -101t-54.5 -77.5t-70.5 -58t-70.5 -46.5t-54.5 -40t-21.5 -40q0 -25 27 -43.5t70.5 -32.5t96 -29.5t105 -40t96 -57.5t70.5 -88.5 t27 -127.5q0 -39 -11 -78.5t-39.5 -81.5t-71 -73.5t-113 -52t-159.5 -20.5q-168 0 -364 50l-45 12l59 190l43 -8q178 -29 268 -29q98 0 137.5 25.5t39.5 75.5q0 32 -22.5 56.5t-59 39.5t-83 30t-95 28t-95 34.5t-83 48.5t-59 71t-22.5 101q0 51 22.5 94t56 70.5t73 53.5 t73 44.5t56 42.5t22.5 48q0 64 -59.5 106.5t-128.5 42.5q-18 0 -37.5 -3t-50 -16.5t-53 -35.5t-39.5 -64.5t-17 -99.5v-981h-245z" />
<glyph unicode="&#xe0;" horiz-adv-x="1044" d="M72 272q0 145 105.5 224.5t305.5 91.5l191 10q0 129 -50.5 176t-199.5 47q-68 0 -129.5 -17t-142.5 -50v188q4 1 42.5 15.5t56.5 19.5t56.5 14.5t80 13t89.5 3.5q106 0 186 -20t130.5 -54.5t82 -86.5t44 -110t12.5 -131v-606h-197l-26 66q-137 -86 -291 -86 q-159 0 -252.5 80.5t-93.5 211.5zM260 1436l146 172l505 -377l-143 -164zM315 289q0 -59 45 -93t121 -34q71 0 114.5 14t90.5 43v211l-176 -10q-195 -12 -195 -131z" />
<glyph unicode="&#xe1;" horiz-adv-x="1044" d="M72 272q0 145 105.5 224.5t305.5 91.5l191 10q0 129 -50.5 176t-199.5 47q-68 0 -129.5 -17t-142.5 -50v188q4 1 42.5 15.5t56.5 19.5t56.5 14.5t80 13t89.5 3.5q106 0 186 -20t130.5 -54.5t82 -86.5t44 -110t12.5 -131v-606h-197l-26 66q-137 -86 -291 -86 q-159 0 -252.5 80.5t-93.5 211.5zM260 1231l506 377l145 -172l-508 -369zM315 289q0 -59 45 -93t121 -34q71 0 114.5 14t90.5 43v211l-176 -10q-195 -12 -195 -131z" />
<glyph unicode="&#xe2;" horiz-adv-x="1044" d="M72 272q0 145 105.5 224.5t305.5 91.5l191 10q0 129 -50.5 176t-199.5 47q-68 0 -129.5 -17t-142.5 -50v188q4 1 42.5 15.5t56.5 19.5t56.5 14.5t80 13t89.5 3.5q106 0 186 -20t130.5 -54.5t82 -86.5t44 -110t12.5 -131v-606h-197l-26 66q-137 -86 -291 -86 q-159 0 -252.5 80.5t-93.5 211.5zM258 1243l340 359l315 -349l-151 -145l-176 195l-176 -193zM315 289q0 -59 45 -93t121 -34q71 0 114.5 14t90.5 43v211l-176 -10q-195 -12 -195 -131z" />
<glyph unicode="&#xe3;" horiz-adv-x="1044" d="M72 272q0 145 105.5 224.5t305.5 91.5l191 10q0 129 -50.5 176t-199.5 47q-68 0 -129.5 -17t-142.5 -50v188q4 1 42.5 15.5t56.5 19.5t56.5 14.5t80 13t89.5 3.5q106 0 186 -20t130.5 -54.5t82 -86.5t44 -110t12.5 -131v-606h-197l-26 66q-137 -86 -291 -86 q-159 0 -252.5 80.5t-93.5 211.5zM117 1155l16 39q3 7 14.5 31.5t17 36t19 36t22.5 38t24.5 35t29.5 34t33 28t38.5 23.5t43.5 13.5t49 5.5q52 -2 98 -21.5t77 -46t57 -52t48.5 -43.5t40.5 -18q12 0 23 7.5t22.5 25.5t19.5 32t23 45t23 48l18 35l181 -80l-19 -37 q-3 -6 -14.5 -31t-17 -36t-19 -36t-22.5 -38.5t-25 -35t-29.5 -33.5t-32.5 -27.5t-38.5 -23.5t-43.5 -13.5t-49 -5.5q-63 3 -119 32t-88 62t-63 60.5t-51 27.5q-12 0 -23 -7.5t-22.5 -26t-19.5 -33.5t-22.5 -46.5t-23.5 -48.5l-18 -35zM315 289q0 -59 45 -93t121 -34 q71 0 114.5 14t90.5 43v211l-176 -10q-195 -12 -195 -131z" />
<glyph unicode="&#xe4;" horiz-adv-x="1044" d="M72 272q0 145 105.5 224.5t305.5 91.5l191 10q0 129 -50.5 176t-199.5 47q-68 0 -129.5 -17t-142.5 -50v188q4 1 42.5 15.5t56.5 19.5t56.5 14.5t80 13t89.5 3.5q106 0 186 -20t130.5 -54.5t82 -86.5t44 -110t12.5 -131v-606h-197l-26 66q-137 -86 -291 -86 q-159 0 -252.5 80.5t-93.5 211.5zM227 1194v268h269v-268h-269zM315 289q0 -59 45 -93t121 -34q71 0 114.5 14t90.5 43v211l-176 -10q-195 -12 -195 -131zM676 1194v268h268v-268h-268z" />
<glyph unicode="&#xe5;" horiz-adv-x="1044" d="M72 272q0 145 105.5 224.5t305.5 91.5l191 10q0 129 -50.5 176t-199.5 47q-68 0 -129.5 -17t-142.5 -50v188q4 1 42.5 15.5t56.5 19.5t56.5 14.5t80 13t89.5 3.5q106 0 186 -20t130.5 -54.5t82 -86.5t44 -110t12.5 -131v-606h-197l-26 66q-137 -86 -291 -86 q-159 0 -252.5 80.5t-93.5 211.5zM315 289q0 -59 45 -93t121 -34q71 0 114.5 14t90.5 43v211l-176 -10q-195 -12 -195 -131zM324 1350q0 109 77.5 186.5t184.5 77.5t184.5 -77.5t77.5 -186.5q0 -110 -77.5 -188.5t-184.5 -78.5q-106 0 -184 78.5t-78 188.5zM496 1350 q0 -38 25.5 -66.5t64.5 -28.5q35 0 60.5 29t25.5 66t-25 64.5t-61 27.5q-38 0 -64 -27.5t-26 -64.5z" />
<glyph unicode="&#xe6;" horiz-adv-x="1837" d="M123 283q0 121 105.5 203t303.5 100q113 10 222 10v8q0 40 -10.5 73.5t-34 63.5t-69 47t-108.5 17q-96 0 -253 -39l-37 -10l-68 178l39 12q175 60 365 60q238 0 348 -146q75 67 173.5 106.5t203.5 39.5q74 0 134 -18.5t101 -49t72 -76.5t49 -94t29 -107.5t14.5 -111.5 t3.5 -113v-41h-682q17 -87 112.5 -143.5t231.5 -56.5q88 0 203 32l41 15l45 -191l-35 -12q-161 -59 -322 -59q-246 0 -397 131q-137 -131 -377 -131q-164 0 -283.5 86.5t-119.5 216.5zM369 315q0 -47 57.5 -84.5t134.5 -37.5q112 0 193 71v172q-126 -1 -207.5 -11.5 t-118 -29.5t-48 -37t-11.5 -43zM1030 600h436q-3 35 -14 65t-32 57.5t-59 43.5t-89 16q-99 0 -164 -52.5t-78 -129.5z" />
<glyph unicode="&#xe7;" horiz-adv-x="1021" d="M72 492q0 233 139 374.5t371 141.5q86 0 162 -15.5t118 -32t99 -45.5l-72 -161q-153 61 -266 61q-146 0 -222.5 -88.5t-76.5 -234.5q0 -144 79.5 -234t219.5 -90q113 0 266 61l72 -161q-57 -29 -99 -45.5t-118 -32t-162 -15.5q-232 0 -371 142t-139 375zM293 -473l49 170 l39 -12q142 -45 194 -45q32 0 46 11.5t14 24.5q0 6 -2 11.5t-7.5 10t-12 8.5t-17.5 9t-21.5 8.5t-27.5 9t-32 10t-38.5 11.5t-42.5 13l-39 10l78 286h211l-43 -169q29 -9 54.5 -22.5t55 -37t47 -61.5t17.5 -86q0 -88 -66.5 -157t-177.5 -69q-14 0 -29.5 1.5t-27.5 3t-30 5.5 t-28 6.5t-31.5 9t-29 8.5t-32.5 10t-31 10z" />
<glyph unicode="&#xe8;" horiz-adv-x="1150" d="M72 492q0 113 37.5 210.5t100 164t145.5 104t173 37.5q225 0 343 -140t118 -376v-95h-670q8 -127 86.5 -178t221.5 -51q47 0 98 5t74 8.5t80 15t61 12.5v-174q-154 -60 -346 -60q-257 0 -389.5 141.5t-132.5 375.5zM252 1436l145 172l506 -377l-143 -164zM324 569h421 q0 116 -58.5 181t-151.5 65q-80 0 -142.5 -66t-68.5 -180z" />
<glyph unicode="&#xe9;" horiz-adv-x="1150" d="M72 492q0 113 37.5 210.5t100 164t145.5 104t173 37.5q225 0 343 -140t118 -376v-95h-670q8 -127 86.5 -178t221.5 -51q47 0 98 5t74 8.5t80 15t61 12.5v-174q-154 -60 -346 -60q-257 0 -389.5 141.5t-132.5 375.5zM252 1231l506 377l145 -172l-508 -369zM324 569h421 q0 116 -58.5 181t-151.5 65q-80 0 -142.5 -66t-68.5 -180z" />
<glyph unicode="&#xea;" horiz-adv-x="1150" d="M72 492q0 113 37.5 210.5t100 164t145.5 104t173 37.5q225 0 343 -140t118 -376v-95h-670q8 -127 86.5 -178t221.5 -51q47 0 98 5t74 8.5t80 15t61 12.5v-174q-154 -60 -346 -60q-257 0 -389.5 141.5t-132.5 375.5zM250 1243l340 359l315 -349l-151 -145l-176 195 l-177 -193zM324 569h421q0 116 -58.5 181t-151.5 65q-80 0 -142.5 -66t-68.5 -180z" />
<glyph unicode="&#xeb;" horiz-adv-x="1150" d="M72 492q0 113 37.5 210.5t100 164t145.5 104t173 37.5q225 0 343 -140t118 -376v-95h-670q8 -127 86.5 -178t221.5 -51q47 0 98 5t74 8.5t80 15t61 12.5v-174q-154 -60 -346 -60q-257 0 -389.5 141.5t-132.5 375.5zM219 1194v268h268v-268h-268zM324 569h421 q0 116 -58.5 181t-151.5 65q-80 0 -142.5 -66t-68.5 -180zM668 1194v268h268v-268h-268z" />
<glyph unicode="&#xec;" horiz-adv-x="604" d="M-23 1436l146 172l506 -377l-144 -164zM180 0v987h246v-987h-246z" />
<glyph unicode="&#xed;" horiz-adv-x="604" d="M-23 1231l506 377l146 -172l-508 -369zM180 0v987h246v-987h-246z" />
<glyph unicode="&#xee;" horiz-adv-x="604" d="M-25 1243l340 359l316 -349l-152 -145l-176 195l-176 -193zM180 0v987h246v-987h-246z" />
<glyph unicode="&#xef;" horiz-adv-x="604" d="M-14 1153v268h266v-268h-266zM180 0v987h246v-987h-246zM354 1153v268h267v-268h-267z" />
<glyph unicode="&#xf0;" horiz-adv-x="1415" d="M129 434q0 141 60.5 257t179.5 187.5t276 71.5q151 0 324 -67q-34 99 -125 178l-215 -109l-111 166l137 70q-74 36 -159 61l-52 17l111 200l39 -10q184 -45 332 -135l202 113l97 -166l-146 -84q88 -101 123 -223.5t35 -280.5q0 -82 -5.5 -150.5t-21.5 -142t-42 -131.5 t-69.5 -111t-102 -88t-141.5 -56t-185 -21q-249 0 -395 121.5t-146 332.5zM371 522q0 -140 93.5 -232.5t223.5 -92.5q32 0 63.5 6t70.5 24.5t70 48.5t56.5 83t36.5 122q10 82 10 189v39q-189 98 -325 98q-129 0 -214 -79t-85 -206z" />
<glyph unicode="&#xf1;" horiz-adv-x="1140" d="M109 1155l16 39q3 7 14.5 31.5t17 36t19 36t22.5 38t24.5 35t29.5 34t33 28t38.5 23.5t43.5 13.5t49 5.5q52 -2 98 -21.5t77 -46t57 -52t48.5 -43.5t40.5 -18q12 0 23 7.5t22.5 25.5t19.5 32t23 45t23 48l18 35l181 -80l-19 -37q-3 -6 -14.5 -31t-17 -36t-19 -36 t-22.5 -38.5t-25 -35t-29.5 -33.5t-32.5 -27.5t-38.5 -23.5t-43.5 -13.5t-49 -5.5q-63 3 -119 32t-88 62t-63 60.5t-51 27.5q-12 0 -23 -7.5t-22.5 -26t-19.5 -33.5t-22.5 -46.5t-23.5 -48.5l-18 -35zM123 0v987h172l33 -67q203 86 342 86q71 0 127.5 -16.5t93.5 -41 t63.5 -64t40.5 -75.5t22 -85t9.5 -83.5t1.5 -79.5v-561h-246v604q0 26 -3 49.5t-14.5 52.5t-29.5 50t-52 35t-79 14q-102 0 -235 -55v-750h-246z" />
<glyph unicode="&#xf2;" horiz-adv-x="1157" d="M72 492q0 233 138.5 374.5t369.5 141.5q232 0 368.5 -140.5t136.5 -373.5q0 -231 -138 -372.5t-369 -141.5t-368.5 140.5t-137.5 371.5zM285 1436l145 172l506 -377l-143 -164zM324 492q0 -151 72.5 -234.5t181.5 -83.5q111 0 182 83t71 235t-72 237.5t-181 85.5 q-108 0 -181 -86t-73 -237z" />
<glyph unicode="&#xf3;" horiz-adv-x="1157" d="M72 492q0 233 138.5 374.5t369.5 141.5q232 0 368.5 -140.5t136.5 -373.5q0 -231 -138 -372.5t-369 -141.5t-368.5 140.5t-137.5 371.5zM285 1231l506 377l145 -172l-508 -369zM324 492q0 -151 72.5 -234.5t181.5 -83.5q111 0 182 83t71 235t-72 237.5t-181 85.5 q-108 0 -181 -86t-73 -237z" />
<glyph unicode="&#xf4;" horiz-adv-x="1157" d="M72 492q0 233 138.5 374.5t369.5 141.5q232 0 368.5 -140.5t136.5 -373.5q0 -231 -138 -372.5t-369 -141.5t-368.5 140.5t-137.5 371.5zM283 1243l340 359l315 -349l-152 -145l-176 195l-176 -193zM324 492q0 -151 72.5 -234.5t181.5 -83.5q111 0 182 83t71 235 t-72 237.5t-181 85.5q-108 0 -181 -86t-73 -237z" />
<glyph unicode="&#xf5;" horiz-adv-x="1157" d="M72 492q0 233 138.5 374.5t369.5 141.5q232 0 368.5 -140.5t136.5 -373.5q0 -231 -138 -372.5t-369 -141.5t-368.5 140.5t-137.5 371.5zM141 1155l17 39q3 7 14.5 31.5t17 36t19 36t22.5 38t24.5 35t29.5 34t33 28t38.5 23.5t43.5 13.5t49 5.5q52 -2 98 -21.5t77 -46 t57 -52t48.5 -43.5t40.5 -18q12 0 23 7.5t22.5 25.5t19.5 32t23 45t23 48l18 35l180 -80l-18 -37q-3 -6 -14.5 -31t-17 -36t-19 -36t-22.5 -38.5t-25 -35t-29.5 -33.5t-32.5 -27.5t-38.5 -23.5t-43.5 -13.5t-49 -5.5q-63 3 -119 32t-88 62t-63 60.5t-51 27.5q-12 0 -23 -7.5 t-22.5 -26t-19.5 -33.5t-22.5 -46.5t-23.5 -48.5l-19 -35zM324 492q0 -151 72.5 -234.5t181.5 -83.5q111 0 182 83t71 235t-72 237.5t-181 85.5q-108 0 -181 -86t-73 -237z" />
<glyph unicode="&#xf6;" horiz-adv-x="1157" d="M72 492q0 233 138.5 374.5t369.5 141.5q232 0 368.5 -140.5t136.5 -373.5q0 -231 -138 -372.5t-369 -141.5t-368.5 140.5t-137.5 371.5zM252 1194v268h268v-268h-268zM324 492q0 -151 72.5 -234.5t181.5 -83.5q111 0 182 83t71 235t-72 237.5t-181 85.5q-108 0 -181 -86 t-73 -237zM700 1194v268h269v-268h-269z" />
<glyph unicode="&#xf7;" horiz-adv-x="1562" d="M125 547v221h1315v-221h-1315zM629 84v276h307v-276h-307zM629 956v277h307v-277h-307z" />
<glyph unicode="&#xf8;" horiz-adv-x="1374" d="M123 63l110 101q-104 129 -104 319q0 242 152 383.5t413 141.5q221 0 363 -103l127 115l106 -119l-123 -110q78 -121 78 -279q0 -246 -154 -389t-415 -143q-192 0 -322 77l-125 -112zM373 510q0 -103 51 -174l442 397q-80 51 -188 51q-77 0 -144.5 -28.5t-114 -93 t-46.5 -152.5zM549 231q67 -28 147 -28q131 0 219.5 77t88.5 203q0 68 -29 131z" />
<glyph unicode="&#xf9;" horiz-adv-x="1120" d="M113 424v561h245v-604q0 -34 6.5 -64t23.5 -63.5t55 -53.5t94 -20q105 0 215 56v749h245v-987h-172l-32 68q-5 -2 -30 -13t-35 -15t-35 -13.5t-40 -14t-40.5 -11.5t-45.5 -10.5t-45.5 -6t-50.5 -2.5q-71 0 -127.5 16t-93.5 41t-63.5 64t-40.5 75t-22 85.5t-9.5 83.5 t-1.5 79zM252 1436l145 172l506 -377l-143 -164z" />
<glyph unicode="&#xfa;" horiz-adv-x="1120" d="M113 424v561h245v-604q0 -34 6.5 -64t23.5 -63.5t55 -53.5t94 -20q105 0 215 56v749h245v-987h-172l-32 68q-5 -2 -30 -13t-35 -15t-35 -13.5t-40 -14t-40.5 -11.5t-45.5 -10.5t-45.5 -6t-50.5 -2.5q-71 0 -127.5 16t-93.5 41t-63.5 64t-40.5 75t-22 85.5t-9.5 83.5 t-1.5 79zM252 1231l506 377l145 -172l-508 -369z" />
<glyph unicode="&#xfb;" horiz-adv-x="1120" d="M113 424v561h245v-604q0 -34 6.5 -64t23.5 -63.5t55 -53.5t94 -20q105 0 215 56v749h245v-987h-172l-32 68q-5 -2 -30 -13t-35 -15t-35 -13.5t-40 -14t-40.5 -11.5t-45.5 -10.5t-45.5 -6t-50.5 -2.5q-71 0 -127.5 16t-93.5 41t-63.5 64t-40.5 75t-22 85.5t-9.5 83.5 t-1.5 79zM250 1243l340 359l315 -349l-151 -145l-176 195l-177 -193z" />
<glyph unicode="&#xfc;" horiz-adv-x="1120" d="M113 424v561h245v-604q0 -34 6.5 -64t23.5 -63.5t55 -53.5t94 -20q105 0 215 56v749h245v-987h-172l-32 68q-5 -2 -30 -13t-35 -15t-35 -13.5t-40 -14t-40.5 -11.5t-45.5 -10.5t-45.5 -6t-50.5 -2.5q-71 0 -127.5 16t-93.5 41t-63.5 64t-40.5 75t-22 85.5t-9.5 83.5 t-1.5 79zM219 1194v268h268v-268h-268zM668 1194v268h268v-268h-268z" />
<glyph unicode="&#xfd;" horiz-adv-x="1153" d="M0 987h283l292 -758l267 758h260l-604 -1517h-277l225 522zM260 1231l506 377l145 -172l-508 -369z" />
<glyph unicode="&#xfe;" horiz-adv-x="1329" d="M135 -530v1951h258v-487q120 70 277 70q151 0 270.5 -58t189.5 -171.5t70 -264.5q0 -232 -149 -382.5t-389 -150.5q-143 0 -269 66v-573h-258zM381 469q0 -270 262 -270q40 0 81 8.5t84 29.5t75.5 52t53.5 80.5t21 111.5q0 72 -28.5 131t-75 94.5t-102 54.5t-113.5 19 q-126 0 -192 -72t-66 -239z" />
<glyph unicode="&#xff;" horiz-adv-x="1153" d="M0 987h283l292 -758l267 758h260l-604 -1517h-277l225 522zM227 1194v268h269v-268h-269zM676 1194v268h268v-268h-268z" />
<glyph unicode="&#x152;" horiz-adv-x="2160" d="M215 702q0 335 186 521q49 47 107.5 81.5t125 55.5t125 34t135 18.5t126.5 7t127 1.5h856v-231h-643v-342h588v-232h-588v-385h643v-231h-952q-136 0 -239 10.5t-198 46.5q-187 72 -293 234.5t-106 410.5zM467 702q0 -75 18 -140.5t45 -110.5t65 -82.5t73 -59t73 -37.5 q61 -26 118 -33.5t140 -7.5h91v959h-17q-118 0 -194 -10q-196 -28 -304 -153t-108 -325z" />
<glyph unicode="&#x153;" horiz-adv-x="1966" d="M129 485q0 236 142.5 376t381.5 140q127 0 229 -43t167 -122q59 66 140 104.5t136 47.5t109 9q79 0 142 -18.5t104.5 -47t72 -73t46 -87t25 -100t11.5 -99.5t2 -97v-108h-676q20 -78 106 -136.5t230 -58.5q86 0 203 31l43 10l45 -168l-35 -10q-157 -58 -326 -58 q-270 0 -407 156q-147 -153 -385 -153q-231 0 -368.5 137t-137.5 368zM373 502q0 -128 77.5 -214.5t202.5 -86.5q107 0 180.5 71t73.5 203q0 79 -24 140t-64.5 96t-86.5 52t-95 17q-118 0 -191 -78t-73 -200zM1163 571h434q-6 131 -57.5 186.5t-142.5 55.5 q-101 0 -162 -69.5t-72 -172.5z" />
<glyph unicode="&#x178;" horiz-adv-x="1312" d="M14 1421h283l358 -551l363 551h285l-531 -778v-643h-252v643zM301 1579v268h268v-268h-268zM750 1579v268h268v-268h-268z" />
<glyph unicode="&#x2c6;" horiz-adv-x="1165" d="M266 1243l340 359l314 -349l-152 -145l-176 195l-176 -193z" />
<glyph unicode="&#x2dc;" horiz-adv-x="1398" d="M256 721l16 39q3 6 14.5 31t17 36t19 36t22.5 38.5t25 35t29.5 33.5t32.5 27.5t38.5 23.5t43.5 13.5t49 5.5q52 -2 98 -21.5t77.5 -45.5t57.5 -51.5t48.5 -43.5t40.5 -18q12 0 23 7.5t22.5 25t19 32.5t22 45.5t23.5 47.5l19 35l180 -80l-18 -37q-3 -7 -14.5 -31.5 t-17 -36t-19 -36t-22.5 -38t-24.5 -35t-29.5 -34t-33 -28t-38.5 -23.5t-43.5 -13.5t-49 -5.5q-52 2 -98.5 22t-78 46.5t-58 52.5t-48.5 44t-39 18q-12 0 -23 -7.5t-22.5 -25.5t-19 -33.5t-22 -46.5t-23.5 -49l-19 -35z" />
<glyph unicode="&#x2000;" horiz-adv-x="996" />
<glyph unicode="&#x2001;" horiz-adv-x="1993" />
<glyph unicode="&#x2002;" horiz-adv-x="996" />
<glyph unicode="&#x2003;" horiz-adv-x="1993" />
<glyph unicode="&#x2004;" horiz-adv-x="664" />
<glyph unicode="&#x2005;" horiz-adv-x="498" />
<glyph unicode="&#x2006;" horiz-adv-x="332" />
<glyph unicode="&#x2007;" horiz-adv-x="332" />
<glyph unicode="&#x2008;" horiz-adv-x="249" />
<glyph unicode="&#x2009;" horiz-adv-x="398" />
<glyph unicode="&#x200a;" horiz-adv-x="110" />
<glyph unicode="&#x2010;" horiz-adv-x="1132" d="M96 549v219h942v-219h-942z" />
<glyph unicode="&#x2011;" horiz-adv-x="1132" d="M96 549v219h942v-219h-942z" />
<glyph unicode="&#x2012;" horiz-adv-x="1132" d="M96 549v219h942v-219h-942z" />
<glyph unicode="&#x2013;" horiz-adv-x="1239" d="M0 549v219h1241v-219h-1241z" />
<glyph unicode="&#x2014;" horiz-adv-x="1464" d="M0 549v219h1466v-219h-1466z" />
<glyph unicode="&#x2018;" horiz-adv-x="448" d="M35 1552h280l150 -516h-281z" />
<glyph unicode="&#x2019;" horiz-adv-x="448" d="M-14 1036l147 516h283l-150 -516h-280z" />
<glyph unicode="&#x201a;" horiz-adv-x="448" d="M-14 -256l147 514h283l-150 -514h-280z" />
<glyph unicode="&#x201c;" horiz-adv-x="829" d="M-14 1036l147 516h283l-150 -516h-280zM365 1036l149 516h281l-150 -516h-280z" />
<glyph unicode="&#x201d;" horiz-adv-x="829" d="M-14 1036l147 516h283l-150 -516h-280zM365 1036l149 516h281l-150 -516h-280z" />
<glyph unicode="&#x201e;" horiz-adv-x="829" d="M-14 -260l147 516h283l-150 -516h-280zM365 -260l149 516h281l-150 -516h-280z" />
<glyph unicode="&#x2022;" horiz-adv-x="1392" d="M354 690q0 140 101 241t241 101t241 -101t101 -241t-101 -241t-241 -101t-241 101t-101 241z" />
<glyph unicode="&#x2026;" horiz-adv-x="1718" d="M139 -41v293h291v-293h-291zM705 -41v293h290v-293h-290zM1270 -41v293h291v-293h-291z" />
<glyph unicode="&#x202f;" horiz-adv-x="398" />
<glyph unicode="&#x2039;" horiz-adv-x="606" d="M25 623l282 405h291l-305 -405l305 -406h-289z" />
<glyph unicode="&#x203a;" horiz-adv-x="606" d="M10 217l305 406l-305 405h289l283 -405l-283 -406h-289z" />
<glyph unicode="&#x205f;" horiz-adv-x="498" />
<glyph unicode="&#x20ac;" horiz-adv-x="1333" d="M8 463v213h203v33q0 32 4 98h-141v213h186q73 209 240.5 331t390.5 122q182 0 362 -80l35 -15l-71 -219l-41 17q-164 63 -289 63q-117 0 -212 -58.5t-153 -160.5h426v-213h-495q-9 -74 -9 -98q0 -5 1 -16.5t1 -16.5h439v-213h-389q57 -130 165 -208.5t257 -78.5 q131 0 276 57l39 17l74 -201l-33 -16q-196 -94 -393 -94q-238 0 -409 143.5t-232 380.5h-232z" />
<glyph unicode="&#x2122;" horiz-adv-x="1423" d="M86 1407v129h498v-129h-176v-489h-148v489h-174zM666 918v618h155l158 -289l149 289h160v-618h-147v372l-119 -221h-98l-111 219v-370h-147z" />
<glyph unicode="&#x25fc;" horiz-adv-x="983" d="M0 0v983h983v-983h-983z" />
</font>
</defs>
</svg>
